<?xml version="1.0" standalone="no"?>
<!DOCTYPE svg PUBLIC "-//W3C//DTD SVG 20010904//EN"
 "http://www.w3.org/TR/2001/REC-SVG-20010904/DTD/svg10.dtd">
<svg version="1.0" xmlns="http://www.w3.org/2000/svg"
 width="512.000000pt" height="512.000000pt" viewBox="0 0 512.000000 512.000000"
 preserveAspectRatio="xMidYMid meet">

<g transform="translate(0.000000,512.000000) scale(0.100000,-0.100000)"
fill="#000000" stroke="none">
<path d="M1543 5096 c-79 -26 -166 -98 -195 -161 l-10 -23 -342 -4 c-322 -3
-344 -4 -387 -24 -66 -31 -114 -78 -146 -142 l-28 -57 0 -2225 c0 -2158 1
-2226 19 -2274 24 -63 77 -121 140 -154 l51 -27 1915 0 1915 0 51 27 c63 33
116 91 140 154 18 47 19 108 19 1877 l0 1827 -505 505 -506 505 -852 0 -851 0
-35 54 c-37 58 -74 90 -146 127 -56 28 -183 36 -247 15z m202 -105 c22 -10 53
-33 69 -50 l30 -31 -192 0 c-115 0 -192 4 -192 9 0 14 58 57 100 75 49 21 136
20 185 -3z m-773 -238 l-27 -48 -3 -2241 -2 -2241 29 -57 29 -57 -173 3 c-171
3 -172 3 -208 31 -21 16 -46 46 -57 67 -20 39 -20 62 -20 2242 0 2127 1 2204
19 2244 18 40 56 75 102 93 13 5 95 10 181 10 l157 1 -27 -47z m338 -268 c0
-373 3 -390 99 -486 166 -165 446 -120 548 89 28 57 28 58 31 285 3 218 2 230
-19 274 -67 138 -281 139 -348 1 -19 -41 -21 -60 -21 -234 0 -134 4 -194 12
-202 16 -16 63 -15 76 1 6 7 12 88 14 201 l3 188 28 24 c37 32 87 32 124 0
l28 -24 3 -184 c2 -111 -1 -203 -8 -234 -50 -230 -376 -249 -456 -27 -10 29
-13 114 -14 341 l0 302 1093 -2 1092 -3 5 -395 5 -395 27 -46 c31 -52 71 -89
132 -122 40 -21 51 -22 429 -25 l387 -3 0 -1777 c0 -1714 -1 -1778 -19 -1818
-10 -23 -36 -54 -57 -70 l-37 -29 -1645 -3 -1645 -2 -43 25 c-28 16 -52 42
-67 68 l-22 42 -3 2189 c-1 1509 1 2200 8 2227 13 47 63 107 105 125 16 7 58
13 93 14 l62 0 0 -315z m2860 -563 c-308 -2 -333 -1 -368 17 -46 23 -67 46
-87 94 -12 30 -15 92 -15 364 l0 328 400 -400 400 -400 -330 -3z"/>
<path d="M1442 3178 c-7 -7 -12 -24 -12 -38 0 -14 5 -31 12 -38 9 -9 328 -12
1375 -12 l1363 0 12 25 c8 19 8 31 0 50 l-12 25 -1363 0 c-1047 0 -1366 -3
-1375 -12z"/>
<path d="M1456 2785 c-26 -13 -32 -57 -11 -79 15 -15 134 -16 1370 -16 1217 0
1355 2 1369 16 20 20 20 58 0 75 -13 10 -269 13 -1362 13 -898 1 -1353 -2
-1366 -9z"/>
<path d="M1446 2384 c-23 -22 -20 -60 6 -78 20 -14 166 -16 1363 -16 1463 0
1385 -3 1385 55 0 59 94 55 -1385 55 -1217 0 -1355 -2 -1369 -16z"/>
<path d="M1446 1984 c-23 -22 -20 -60 6 -78 20 -14 166 -16 1363 -16 1463 0
1385 -3 1385 55 0 59 94 55 -1385 55 -1217 0 -1355 -2 -1369 -16z"/>
<path d="M1446 1584 c-23 -22 -20 -60 6 -78 20 -14 166 -16 1363 -16 1463 0
1385 -3 1385 55 0 59 94 55 -1385 55 -1217 0 -1355 -2 -1369 -16z"/>
<path d="M2666 1201 c-1132 -6 -1220 -7 -1230 -23 -7 -12 -7 -26 0 -45 l9 -28
1364 -3 c1000 -1 1367 1 1377 9 18 15 18 63 -1 79 -20 17 -110 17 -1519 11z"/>
<path d="M1452 794 c-26 -18 -29 -56 -6 -78 14 -14 91 -16 704 -16 l690 0 16
25 c20 30 10 63 -23 76 -14 5 -298 9 -691 9 -588 0 -670 -2 -690 -16z"/>
</g>
</svg>
